<svg id="Layer_1" data-name="Layer 1" xmlns="http://www.w3.org/2000/svg" viewBox="0 0 1611.52 261.85"><defs><style>.cls-1{fill:#043f83;}.cls-2{fill:#1ace66;}</style></defs><g id="Sw-Logo-Blue-Large"><g id="Group_39279" data-name="Group 39279"><path id="Path_19614" data-name="Path 19614" class="cls-1" d="M128.57,162.37c0,29.65-24.38,47.11-65.67,47.11-28.26,0-57.08-8.59-62.9-33.25l43.78-13.58c1.39,5.26,6.1,11.64,18.57,11.64,9.42,0,14.4-4.16,14.4-10,0-8.59-11.91-9.15-28.26-12.75-27.15-6.1-44.05-15.79-44.05-43.22C4.44,79,31.86,62.07,67.06,62.07c24.1,0,49.32,11.63,55.41,35.46l-39.9,9.7c-1.94-6.37-6.92-10.53-15.24-10.53-8.86,0-14.68,3.6-14.68,10.26,0,8.59,12.74,9.7,23.83,11.91,35.47,7.48,52.09,17.73,52.09,43.5"/><path id="Path_19616" data-name="Path 19616" class="cls-1" d="M298.42,135.78c0,36.85-21.61,73.7-65.11,73.7-17.18,0-28.82-5.82-36.86-15v64.84H146.58V65.4h49.87V76.76c8-8.87,19.68-14.69,36.86-14.69,43.5,0,65.11,36.86,65.11,73.71m-50.15,0c0-14.69-9.7-25.22-25.22-25.22-14.68,0-24.93,10.26-24.93,25.22s10.25,24.93,24.93,24.93c15.52,0,25.22-10.53,25.22-24.93"/><path id="Path_19618" data-name="Path 19618" class="cls-1" d="M409.53,62.07v54c-37.68-4.43-41.84,14.41-41.84,36.85v52.93H317.82V65.39h49.87V87.56c9.43-16.07,25.77-25.5,41.84-25.5"/><path id="Path_19620" data-name="Path 19620" class="cls-1" d="M429.2,26a26,26,0,1,1,0,.18V26m1.11,39.35h49.87V205.87H430.31Z"/><path id="Path_19622" data-name="Path 19622" class="cls-1" d="M647.54,118v87.83H597.66V130.23c0-11.08-7.75-19.12-19.94-19.12s-20,8-20,19.12v75.64H507.89V65.39h49.87v15c7.21-10,19.12-18.29,38.24-18.29,44.06,0,51.54,35.46,51.54,56"/><path id="Path_19624" data-name="Path 19624" class="cls-1" d="M818.78,65.39v128.3c0,40.73-29.1,68.16-79,68.16-29.09,0-57.36-10.8-68.72-30.48l36.85-21.89c3.88,5.54,14.69,11.91,29.38,11.91,25.49,0,31.58-12.74,31.58-32.69v-2.5c-8,8.32-19.67,13.3-36.57,13.3-41.84,0-65.4-31.87-65.4-68.72s22.73-68.72,65.4-68.72c16.9,0,28.54,5.55,36.57,14.13V65.39Zm-51.54,65.4c0-15.8-10.25-25.22-24.93-25.22-15.52,0-25.22,10.53-25.22,25.22S726.79,156,742.31,156c14.68,0,24.93-9.42,24.93-25.21"/><path id="Path_19626" data-name="Path 19626" class="cls-1" d="M1056.79,65.4l-47.1,140.48h-41l-23.27-72.6-23.28,72.6h-41L834,65.4h52.64L905.78,138l23-72.6H962L985,138l19.12-72.6Z"/><path id="Path_19628" data-name="Path 19628" class="cls-1" d="M1208.92,135.78c0,42.95-31.59,73.7-75.37,73.7s-75.37-30.76-75.37-73.7,31.59-73.71,75.37-73.71,75.37,30.76,75.37,73.71m-50.43,0c0-15.52-10.53-25.22-24.94-25.22s-25.21,9.7-25.21,25.22,10.8,24.93,25.21,24.93,24.94-9.42,24.94-24.93"/><path id="Path_19630" data-name="Path 19630" class="cls-1" d="M1370.74,135.78c0,42.95-31.59,73.7-75.37,73.7S1220,178.72,1220,135.78s31.59-73.71,75.37-73.71,75.37,30.76,75.37,73.71m-50.43,0c0-15.52-10.53-25.22-24.94-25.22s-25.21,9.7-25.21,25.22,10.8,24.93,25.21,24.93,24.94-9.42,24.94-24.93"/><path id="Path_19632" data-name="Path 19632" class="cls-1" d="M1533.66,11.92v194h-49.87V194.52c-8,9.14-19.68,15-36.58,15-43.78,0-65.39-36.85-65.39-73.7s21.61-73.7,65.39-73.7c16.9,0,28.54,5.82,36.58,14.68V11.92ZM1482.4,135.78c0-15-10.53-25.22-25.21-25.22-15.52,0-25.22,10.53-25.22,25.22,0,14.4,9.7,24.93,25.22,24.93,14.68,0,25.21-10,25.21-24.93"/><path id="Path_19634" data-name="Path 19634" class="cls-2" d="M1611.52,182.32a27.16,27.16,0,1,1-27.15-27.15h0a27.19,27.19,0,0,1,27.15,27.15"/></g></g></svg>